<?xml version="1.0" encoding="UTF-8"?>
<svg width="38px" height="26px" viewBox="0 0 38 26" version="1.1" xmlns="http://www.w3.org/2000/svg" xmlns:xlink="http://www.w3.org/1999/xlink">
    <!-- Generator: Sketch 54.1 (76490) - https://sketchapp.com -->
    <title>Combined Shape</title>
    <desc>Created with Sketch.</desc>
    <g id="Page-1" stroke="none" stroke-width="1" fill="none" fill-rule="evenodd">
        <g id="Blog-Detail" transform="translate(-395.000000, -1066.000000)" fill="#2B8FF2">
            <g id="quotes" transform="translate(395.000000, 1066.000000)">
                <path d="M4.6629367e-15,1 C4.59530133e-15,0.44771525 0.44771525,-5.4965609e-14 1,-5.5067062e-14 L15.1940506,-5.46229728e-14 C15.7463353,-5.52149533e-14 16.1940506,0.44771525 16.1940506,1 L16.1940506,16.1410329 C16.1940506,16.6933176 15.7463353,17.1410329 15.1940506,17.1410329 L10.0250047,17.1410329 C9.87258049,17.1410329 9.72217329,17.1758768 9.58527641,17.242902 C9.08925244,17.4857573 8.88401862,18.0847372 9.12687385,18.5807612 L12.0544651,24.5602717 C12.1214903,24.6971686 12.1563342,24.8475758 12.1563342,25 C12.1563342,25.5522847 11.708619,26 11.1563342,26 L4.72978746,26 C4.33977979,26 3.98535645,25.7732583 3.8218782,25.4191668 L0.0920907408,17.3405001 C0.0314203936,17.209089 1.39088368e-15,17.0660737 1.88737914e-15,16.9213333 L3.55271368e-15,1 Z M21.8059494,1 C21.8059494,0.44771525 22.2536647,-5.4965609e-14 22.8059494,-5.5067062e-14 L37,-5.5067062e-14 C37.5522847,-5.41874603e-14 38,0.44771525 38,1 L38,16.1410329 C38,16.6933176 37.5522847,17.1410329 37,17.1410329 L31.8309541,17.1410329 C31.6785299,17.1410329 31.5281227,17.1758768 31.3912258,17.242902 C30.8952018,17.4857573 30.689968,18.0847372 30.9328233,18.5807612 L33.8604145,24.5602717 C33.9274397,24.6971686 33.9622836,24.8475758 33.9622836,25 C33.9622836,25.5522847 33.5145684,26 32.9622836,26 L26.5357369,26 C26.1457292,26 25.7913059,25.7732583 25.6278276,25.4191668 L21.8980401,17.3405001 C21.8373698,17.209089 21.8059494,17.0660737 21.8059494,16.9213333 L21.8059494,1 Z" id="Combined-Shape"></path>
            </g>
        </g>
    </g>
</svg>