<?xml version="1.0" encoding="UTF-8"?>
<svg width="12px" height="22px" viewBox="0 0 12 22" version="1.1" xmlns="http://www.w3.org/2000/svg" xmlns:xlink="http://www.w3.org/1999/xlink">
    <!-- Generator: Sketch 54.1 (76490) - https://sketchapp.com -->
    <title>Fill 25</title>
    <desc>Created with Sketch.</desc>
    <g id="Page-1" stroke="none" stroke-width="1" fill="none" fill-rule="evenodd" fill-opacity="0.5">
        <g id="Blog-Detail" transform="translate(-205.000000, -874.000000)" fill="#474747">
            <g id="Group-12" transform="translate(195.000000, 827.000000)">
                <g id="Group" transform="translate(0.000000, 42.000000)">
                    <path d="M13.932,26.4146667 L13.932,17.096 L10.7746667,17.096 L10.7746667,13.3906667 L13.9506667,13.3906667 L13.9506667,13.1106667 C13.9493333,12.3653333 13.9346667,11.6213333 13.9533333,10.8746667 C13.9653333,10.4026667 13.9853333,9.91733333 14.0693333,9.452 C14.2666667,8.32 14.788,7.36133333 15.736,6.68133333 C16.5626667,6.08666667 17.508,5.844 18.508,5.824 C18.6253333,5.82133333 18.7426667,5.82 18.8613333,5.82 C19.3986667,5.82 19.936,5.84666667 20.4733333,5.86933333 C20.8306667,5.888 21.188,5.93733333 21.528,5.97066667 L21.528,9.28933333 L21.264,9.28933333 C21.216,9.28933333 21.168,9.28933333 21.1213333,9.28933333 C20.9493333,9.28933333 20.7786667,9.288 20.608,9.28666667 C20.4386667,9.28533333 20.2706667,9.28533333 20.1013333,9.28533333 C19.8506667,9.28533333 19.6,9.28666667 19.3493333,9.296 C18.4733333,9.32666667 17.8266667,9.66 17.796,10.7533333 C17.7733333,11.5493333 17.764,13.388 17.764,13.388 C17.764,13.388 18.6773333,13.3893333 19.5506667,13.3893333 C19.988,13.3893333 20.4146667,13.3893333 20.7133333,13.388 C20.7893333,13.388 20.8653333,13.388 20.9413333,13.388 C21.096,13.388 21.252,13.388 21.4213333,13.388 C21.256,14.6586667 21.0986667,15.8786667 20.9373333,17.1133333 L17.7906667,17.1133333 L17.7906667,26.4146667 L13.932,26.4146667 Z" id="Fill-25"></path>
                </g>
            </g>
        </g>
    </g>
</svg>