<?xml version="1.0" encoding="UTF-8"?>
<svg width="18px" height="18px" viewBox="0 0 18 18" version="1.1" xmlns="http://www.w3.org/2000/svg" xmlns:xlink="http://www.w3.org/1999/xlink">
    <!-- Generator: Sketch 54.1 (76490) - https://sketchapp.com -->
    <title>iconspace_Like_25px</title>
    <desc>Created with Sketch.</desc>
    <g id="Page-1" stroke="none" stroke-width="1" fill="none" fill-rule="evenodd" opacity="0.5">
        <g id="Blog-Detail" transform="translate(-202.000000, -833.000000)">
            <g id="Group-12" transform="translate(195.000000, 827.000000)">
                <g id="iconspace_Like_25px">
                    <polygon id="Path" points="3 3 29 3 29 29 3 29"></polygon>
                    <polygon id="Path" points="0 0 32 0 32 32 0 32"></polygon>
                    <path d="M11.796845,12.3038959 C12.9259132,10.6853223 13.6306821,8.82804274 13.9134195,6.72541661 C13.9403533,6.52511865 14.0809016,6.35856915 14.27382,6.2983427 C16.2182144,5.6913297 17.3236551,6.65591708 17.3053884,8.85538319 C17.3018427,9.28232719 17.2823197,9.66180757 17.2407391,10.2422096 C17.1478633,11.5386186 17.1552408,11.8923973 17.2991324,12.1304597 C17.4374513,12.3593024 17.8864542,12.4374272 18.9484074,12.234036 C19.2834969,12.1698578 19.6196514,12.0971059 19.9919766,12.0097368 C20.1563287,11.9711702 21.3401605,11.6797727 21.6427675,11.6138598 C22.2200153,11.4881254 22.6342026,11.4349134 22.9984003,11.4574463 C23.9850481,11.5184901 24.5086257,12.1593231 24.5990952,13.3870781 C24.758419,15.5492504 24.2661124,19.8922395 23.7749862,21.4919299 C23.2731198,23.1266035 22.3978866,23.7436403 20.2969647,23.7809078 C18.9462094,23.8048682 16.868711,23.8048682 14.0547815,23.7808465 C13.3364572,23.763994 12.6854801,23.6236755 12.1064335,23.3613325 C12.2689749,23.0218209 12.36,22.6415405 12.36,22.24 L12.36,13.92 C12.36,13.3092234 12.1493957,12.7476361 11.796845,12.3038959 Z" id="Path" fill="#474747"></path>
                    <path d="M8.72,12.36 C7.8584358,12.36 7.16,13.0584358 7.16,13.92 L7.16,22.24 C7.16,23.1015642 7.8584358,23.8 8.72,23.8 L9.76,23.8 C10.6215642,23.8 11.32,23.1015642 11.32,22.24 L11.32,13.92 C11.32,13.0584358 10.6215642,12.36 9.76,12.36 L8.72,12.36 Z" id="Path" fill="#474747"></path>
                </g>
            </g>
        </g>
    </g>
</svg>