<?xml version="1.0" encoding="UTF-8"?>
<svg width="16px" height="16px" viewBox="0 0 16 16" version="1.1" xmlns="http://www.w3.org/2000/svg" xmlns:xlink="http://www.w3.org/1999/xlink">
    <!-- Generator: Sketch 54.1 (76490) - https://sketchapp.com -->
    <title>Icon/Social/Linkedin</title>
    <desc>Created with Sketch.</desc>
    <g id="Symbols" stroke="none" stroke-width="1" fill="none" fill-rule="evenodd">
        <g id="Footer" transform="translate(-1104.000000, -373.000000)" fill="#FFFFFF" fill-rule="nonzero">
            <g id="Group-22">
                <g transform="translate(133.000000, 152.000000)">
                    <g id="Group-10" transform="translate(889.000000, 158.000000)">
                        <g id="stacked" transform="translate(0.000000, 62.001172)">
                            <g id="Facebook" transform="translate(80.000000, 0.000000)">
                                <g id="Icon/Social/Linkedin">
                                    <path d="M5.95703123,16.25 L2.93294267,16.25 L2.93294267,6.51367186 L5.95703123,6.51367186 L5.95703123,16.25 Z M4.44335935,5.18554685 C3.47656247,5.18554685 2.69205726,4.3847656 2.69205726,3.41796872 C2.69205726,2.45117184 3.47656247,1.66666662 4.44335935,1.66666662 C5.41015623,1.66666662 6.19466144,2.45117184 6.19466144,3.41796872 C6.19466144,4.3847656 5.41015623,5.18554685 4.44335935,5.18554685 Z M17.2753907,16.25 L14.2578125,16.25 L14.2578125,11.5104167 C14.2578125,10.3808594 14.2350261,8.93229166 12.6855469,8.93229166 C11.1132813,8.93229166 10.8723958,10.1595052 10.8723958,11.4290365 L10.8723958,16.25 L7.85156249,16.25 L7.85156249,6.51367186 L10.7519531,6.51367186 L10.7519531,7.84179686 L10.7942708,7.84179686 C11.1979167,7.0768229 12.1842448,6.26953123 13.655599,6.26953123 C16.7154948,6.26953123 17.2786459,8.2845052 17.2786459,10.9016927 L17.2786459,16.25 L17.2753907,16.25 Z" id="Shape"></path>
                                </g>
                            </g>
                        </g>
                    </g>
                </g>
            </g>
        </g>
    </g>
</svg>