<?xml version="1.0" encoding="UTF-8"?>
<svg width="20px" height="17px" viewBox="0 0 20 17" version="1.1" xmlns="http://www.w3.org/2000/svg" xmlns:xlink="http://www.w3.org/1999/xlink">
    <!-- Generator: Sketch 54.1 (76490) - https://sketchapp.com -->
    <title>Shape</title>
    <desc>Created with Sketch.</desc>
    <g id="Symbols" stroke="none" stroke-width="1" fill="none" fill-rule="evenodd">
        <g id="Footer" transform="translate(-1267.000000, -242.000000)" fill="#FFFFFF" fill-rule="nonzero">
            <g id="Group-22">
                <g transform="translate(133.000000, 152.000000)">
                    <g id="Group-11" transform="translate(889.000000, 6.000000)">
                        <g id="Group-23" transform="translate(0.000000, 62.000000)">
                            <path d="M245.001726,30.4484885 C245.025726,30.8524885 245.293726,31.1924885 245.681726,31.3084885 L252.865726,33.4804885 L253.129726,38.4324885 C253.141726,38.6284885 253.273726,38.8004885 253.461726,38.8644885 C253.513726,38.8844885 253.569726,38.8924885 253.621726,38.8924885 C253.761726,38.8924885 253.893726,38.8364885 253.989726,38.7284885 L256.529726,35.9164885 L260.129726,38.4084885 C260.289726,38.5204885 260.477726,38.5804885 260.673726,38.5804885 C261.125726,38.5804885 261.517726,38.2604885 261.613726,37.8124885 L264.601726,22.5844885 C264.637726,22.4084885 264.569726,22.2244885 264.433726,22.1124885 C264.293726,21.9964885 264.105726,21.9684885 263.937726,22.0364885 L245.577726,29.5084885 C245.205726,29.6764885 244.977726,30.0444885 245.001726,30.4484885 Z M254.041726,37.2044885 L253.877726,34.0804885 L255.717726,35.3524885 L254.041726,37.2044885 Z M260.657726,37.5844885 L254.105726,33.0484885 L263.293726,24.1604885 L260.657726,37.5844885 Z M262.285726,23.7684885 L253.201726,32.5564885 L246.025726,30.3884885 L262.285726,23.7684885 Z" id="Shape"></path>
                        </g>
                    </g>
                </g>
            </g>
        </g>
    </g>
</svg>