<?xml version="1.0" encoding="UTF-8"?>
<svg width="18px" height="14px" viewBox="0 0 18 14" version="1.1" xmlns="http://www.w3.org/2000/svg" xmlns:xlink="http://www.w3.org/1999/xlink">
    <!-- Generator: Sketch 54.1 (76490) - https://sketchapp.com -->
    <title>Facebook</title>
    <desc>Created with Sketch.</desc>
    <g id="Symbols" stroke="none" stroke-width="1" fill="none" fill-rule="evenodd">
        <g id="Footer" transform="translate(-1023.000000, -375.000000)" fill="#FFFFFF" fill-rule="nonzero">
            <g id="Group-22">
                <g transform="translate(133.000000, 152.000000)">
                    <g id="Group-10" transform="translate(889.000000, 158.000000)">
                        <g id="stacked" transform="translate(0.000000, 62.001172)">
                            <g id="Facebook">
                                <g id="Icon/Social/Twitter">
                                    <path d="M16.6201172,6.60533852 C16.6306966,6.7533854 16.6306966,6.90146483 16.6306966,7.0495117 C16.6306966,11.5651367 13.19375,16.7681966 6.9120117,16.7681966 C4.97672524,16.7681966 3.17893877,16.2076823 1.66666662,15.2347982 C1.94163407,15.2665039 2.20598954,15.2770834 2.49153642,15.2770834 C4.08837888,15.2770834 5.55836586,14.7377604 6.73222655,13.8177084 C5.23053383,13.7859701 3.97207028,12.802474 3.53847653,11.4488281 C3.74999997,11.4805339 3.96149086,11.5016927 4.18359372,11.5016927 C4.4902669,11.5016927 4.79697263,11.459375 5.08248695,11.3853841 C3.51735023,11.068099 2.34345699,9.69332682 2.34345699,8.0330078 L2.34345699,7.99072265 C2.79817705,8.24453124 3.32698564,8.40315754 3.88743487,8.42428385 C2.96738278,7.81090494 2.36461585,6.76396483 2.36461585,5.57952472 C2.36461585,4.94501951 2.53378903,4.36337888 2.82991533,3.85576169 C4.5113932,5.9285156 7.03889972,7.28212889 9.87304687,7.43020832 C9.82018229,7.17639973 9.78844401,6.91204426 9.78844401,6.64765623 C9.78844401,4.76523435 11.3112956,3.2318359 13.2042643,3.2318359 C14.1877604,3.2318359 15.0760742,3.6442708 15.7000326,4.31051429 C16.4720052,4.16246742 17.2122722,3.87692054 17.8679688,3.4856445 C17.6141276,4.27880857 17.0748047,4.94505206 16.3662761,5.36803383 C17.0536784,5.29404295 17.7199219,5.10364581 18.3332683,4.83929034 C17.8680339,5.51608071 17.2863607,6.11884764 16.6201172,6.60533852 Z" id="Path"></path>
                                </g>
                            </g>
                        </g>
                    </g>
                </g>
            </g>
        </g>
    </g>
</svg>