<?xml version="1.0" encoding="UTF-8"?>
<svg width="20px" height="17px" viewBox="0 0 20 17" version="1.1" xmlns="http://www.w3.org/2000/svg" xmlns:xlink="http://www.w3.org/1999/xlink">
    <!-- Generator: Sketch 54.1 (76490) - https://sketchapp.com -->
    <title>Fill 70</title>
    <desc>Created with Sketch.</desc>
    <g id="Page-1" stroke="none" stroke-width="1" fill="none" fill-rule="evenodd" opacity="0.5">
        <g id="Blog-Detail" transform="translate(-202.000000, -919.000000)" fill="#474747">
            <g id="Group-12" transform="translate(195.000000, 827.000000)">
                <g id="Group-2" transform="translate(0.000000, 84.000000)">
                    <path d="M13.528,24.4653333 C11.404,24.4653333 9.43333333,23.9013333 7.61333333,22.7773333 L7.52133333,22.716 C7.83066667,22.7493333 8.13866667,22.7666667 8.44266667,22.7666667 C9.476,22.7666667 10.4733333,22.5706667 11.4413333,22.1746667 C12.1066667,21.904 12.7226667,21.5453333 13.3053333,21.088 C11.268,21.0173333 9.996,19.556 9.65866667,18.368 C9.89866667,18.4146667 10.1386667,18.436 10.376,18.436 C10.6986667,18.436 11.0186667,18.396 11.3386667,18.3173333 L11.3946667,18.292 C10.292,18.036 9.44133333,17.4453333 8.84933333,16.4933333 C8.456,15.8613333 8.26933333,15.1706667 8.27466667,14.408 C8.82533333,14.7026667 9.40133333,14.8666667 10.02,14.884 C9.19066667,14.2866667 8.63333333,13.5066667 8.40666667,12.508 C8.18,11.5106667 8.32666667,10.5613333 8.82533333,9.66666667 C10.9493333,12.168 13.636,13.5386667 16.912,13.7613333 C16.8893333,13.608 16.864,13.4706667 16.8493333,13.3346667 C16.74,12.4133333 16.9226667,11.552 17.42,10.7706667 C18.044,9.79333333 18.936,9.184 20.0786667,9 C20.3213333,8.96 20.5573333,8.94 20.788,8.94 C21.8133333,8.94 22.7253333,9.33066667 23.5106667,10.092 L23.72,10.1546667 C24.5253333,9.97866667 25.2853333,9.68933333 26,9.27733333 L26.052,9.25066667 L26.0786667,9.24933333 C25.7666667,10.16 25.2026667,10.8626667 24.4,11.3826667 C25.1586667,11.3 25.8826667,11.096 26.5826667,10.7946667 L26.5973333,10.8106667 C26.448,11.0093333 26.304,11.2093333 26.1466667,11.4 C25.732,11.9133333 25.2533333,12.3626667 24.7226667,12.7533333 L24.6573333,12.8786667 C24.68,13.46 24.656,14.04 24.584,14.6186667 C24.4333333,15.836 24.0933333,16.9973333 23.5746667,18.108 C23.0373333,19.252 22.3373333,20.2893333 21.456,21.1986667 C19.964,22.744 18.164,23.7373333 16.0693333,24.1986667 C15.352,24.3573333 14.6213333,24.4386667 13.8853333,24.46 C13.7666667,24.4626667 13.6466667,24.4653333 13.528,24.4653333" id="Fill-70"></path>
                </g>
            </g>
        </g>
    </g>
</svg>