<?xml version="1.0" encoding="UTF-8"?>
<svg width="16px" height="12px" viewBox="0 0 16 12" version="1.1" xmlns="http://www.w3.org/2000/svg" xmlns:xlink="http://www.w3.org/1999/xlink">
    <!-- Generator: Sketch 54.1 (76490) - https://sketchapp.com -->
    <title>Icon/Social/Youtube</title>
    <desc>Created with Sketch.</desc>
    <g id="Symbols" stroke="none" stroke-width="1" fill="none" fill-rule="evenodd">
        <g id="Footer" transform="translate(-1144.000000, -376.000000)" fill="#FFFFFF" fill-rule="nonzero">
            <g id="Group-22">
                <g transform="translate(133.000000, 152.000000)">
                    <g id="Group-10" transform="translate(889.000000, 158.000000)">
                        <g id="stacked" transform="translate(0.000000, 62.001172)">
                            <g id="Facebook" transform="translate(120.000000, 0.000000)">
                                <g id="Icon/Social/Youtube">
                                    <path d="M17.5710359,6.18295716 C17.389294,5.49864002 16.8538195,4.95969326 16.1739294,4.77679396 C14.9415799,4.44444442 10,4.44444442 10,4.44444442 C10,4.44444442 5.05844905,4.44444442 3.82607057,4.77679396 C3.14618052,4.9597222 2.61070598,5.49864002 2.42896408,6.18295716 C2.09875575,7.42332175 2.09875575,10.0112269 2.09875575,10.0112269 C2.09875575,10.0112269 2.09875575,12.599132 2.42896408,13.8394965 C2.61070598,14.5238137 3.14618052,15.0403067 3.82607057,15.223206 C5.05844905,15.5555556 10,15.5555556 10,15.5555556 C10,15.5555556 14.941551,15.5555556 16.1739294,15.223206 C16.8538195,15.0403067 17.389294,14.5238137 17.5710359,13.8394965 C17.9012443,12.599132 17.9012443,10.0112269 17.9012443,10.0112269 C17.9012443,10.0112269 17.9012443,7.42332175 17.5710359,6.18295716 Z M8.38382522,12.3608507 L8.38382522,7.661603 L12.5140046,10.0112847 L8.38382522,12.3608507 Z" id="Shape"></path>
                                </g>
                            </g>
                        </g>
                    </g>
                </g>
            </g>
        </g>
    </g>
</svg>